<?xml version="1.0" standalone="no"?>
<!DOCTYPE svg PUBLIC "-//W3C//DTD SVG 20010904//EN"
 "http://www.w3.org/TR/2001/REC-SVG-20010904/DTD/svg10.dtd">
<svg version="1.0" xmlns="http://www.w3.org/2000/svg"
 width="207.000000pt" height="207.000000pt" viewBox="0 0 207.000000 207.000000"
 preserveAspectRatio="xMidYMid meet">
<metadata>
Created by potrace 1.11, written by Peter Selinger 2001-2013
</metadata>
<g transform="translate(0.000000,207.000000) scale(0.100000,-0.100000)"
fill="#000000" stroke="none">
<path d="M286 2019 c-20 -22 -42 -52 -47 -67 -15 -38 -15 -141 1 -183 12 -33
11 -39 -7 -65 -55 -79 -57 -165 -7 -324 40 -127 60 -208 58 -227 -1 -7 -2 -22
-3 -33 -2 -36 -65 -87 -122 -99 -62 -14 -70 -23 -58 -64 5 -17 6 -55 2 -84 -4
-41 -3 -53 8 -54 102 -6 171 -62 171 -138 1 -46 -3 -61 -46 -201 -60 -196 -62
-269 -11 -356 50 -86 159 -123 351 -118 130 2 159 13 148 52 -4 15 -7 57 -5
94 l2 68 -95 0 c-126 0 -140 10 -142 108 -1 39 3 95 8 124 28 176 30 308 5
359 -22 45 -85 109 -106 109 -10 0 -6 7 11 17 15 9 38 38 51 63 40 73 50 138
42 258 -16 258 -16 278 6 306 19 24 25 26 110 25 50 0 94 2 97 6 4 4 8 46 9
93 0 48 3 94 5 102 2 13 -18 15 -140 15 l-142 1 -25 36 c-14 21 -25 40 -25 43
0 3 -15 28 -34 56 -29 43 -33 55 -26 85 4 19 4 34 0 34 -4 0 -24 -18 -44 -41z"/>
<path d="M1744 2030 c5 -31 -1 -47 -52 -130 l-58 -95 -141 2 -141 1 3 -104 c1
-58 5 -107 8 -110 3 -3 46 -5 96 -5 81 0 93 -2 112 -22 20 -21 21 -28 14 -147
-18 -312 -8 -384 65 -461 l35 -37 -30 -16 c-33 -18 -70 -69 -90 -125 -12 -36
-13 -123 -1 -206 22 -153 26 -187 26 -241 0 -96 -14 -108 -136 -114 l-98 -5
-2 -81 c-1 -45 -4 -86 -8 -92 -14 -23 39 -35 158 -35 122 -1 148 2 221 22 87
23 151 110 158 213 4 53 -12 128 -67 307 -31 102 -33 153 -6 195 23 38 47 52
115 69 40 10 50 16 48 32 -1 11 -4 36 -6 55 -2 19 0 48 4 65 10 35 3 45 -42
52 -49 7 -103 40 -123 75 -25 42 -17 106 34 263 59 183 57 283 -6 355 -11 13
-11 25 2 75 26 99 5 183 -61 245 l-37 35 6 -35z"/>
<path d="M1210 1340 c-45 -8 -76 -28 -89 -57 -18 -38 -13 -72 14 -98 35 -36
74 -33 115 10 26 26 40 34 60 31 14 -2 28 -5 31 -5 3 -1 19 -12 34 -25 45 -39
83 -5 47 43 -51 69 -144 113 -212 101z"/>
<path d="M739 1311 c-38 -39 -40 -88 -3 -122 21 -19 36 -24 81 -24 48 0 58 4
80 29 78 91 -73 202 -158 117z"/>
<path d="M672 661 c-6 -3 -10 -50 -10 -109 l-1 -102 385 0 384 0 0 105 0 105
-30 0 -30 0 0 -64 c0 -42 -4 -65 -12 -68 -11 -3 -603 -2 -631 1 -5 1 -7 9 -6
19 1 9 1 38 0 63 -1 37 -5 48 -20 52 -10 2 -23 2 -29 -2z"/>
</g>
</svg>
